<mxfile host="app.diagrams.net" modified="2021-05-05T01:13:27.903Z" agent="5.0 (Windows NT 10.0; Win64; x64) AppleWebKit/537.36 (KHTML, like Gecko) Chrome/90.0.4430.93 Safari/537.36" etag="3e0-JteM3yyFCVVyGcJf" version="14.6.10" type="github">
  <diagram id="sl-Ipaczmb_JynNWzrRI" name="Page-1">
    <mxGraphModel dx="1038" dy="548" grid="1" gridSize="10" guides="1" tooltips="1" connect="1" arrows="1" fold="1" page="1" pageScale="1" pageWidth="850" pageHeight="1100" math="0" shadow="0">
      <root>
        <mxCell id="0" />
        <mxCell id="1" parent="0" />
        <mxCell id="9bWMmKPgsMBOj7CA2vgF-1" value="Client" style="outlineConnect=0;fontColor=#232F3E;gradientColor=none;strokeColor=#232F3E;fillColor=#ffffff;dashed=0;verticalLabelPosition=bottom;verticalAlign=top;align=center;html=1;fontSize=12;fontStyle=0;aspect=fixed;shape=mxgraph.aws4.resourceIcon;resIcon=mxgraph.aws4.client;" vertex="1" parent="1">
          <mxGeometry x="410" y="10" width="50" height="50" as="geometry" />
        </mxCell>
        <mxCell id="9bWMmKPgsMBOj7CA2vgF-2" value="Wan" style="aspect=fixed;html=1;points=[];align=center;image;fontSize=12;image=img/lib/azure2/networking/Virtual_WANs.svg;" vertex="1" parent="1">
          <mxGeometry x="250" y="70" width="65" height="64" as="geometry" />
        </mxCell>
        <mxCell id="9bWMmKPgsMBOj7CA2vgF-3" value="" style="shape=link;html=1;rounded=0;edgeStyle=orthogonalEdgeStyle;" edge="1" parent="1" target="9bWMmKPgsMBOj7CA2vgF-1">
          <mxGeometry width="100" relative="1" as="geometry">
            <mxPoint x="330" y="110" as="sourcePoint" />
            <mxPoint x="420" y="240" as="targetPoint" />
            <Array as="points">
              <mxPoint x="314" y="110" />
              <mxPoint x="435" y="110" />
            </Array>
          </mxGeometry>
        </mxCell>
        <mxCell id="9bWMmKPgsMBOj7CA2vgF-4" value="" style="aspect=fixed;perimeter=ellipsePerimeter;html=1;align=center;shadow=0;dashed=0;spacingTop=3;image;image=img/lib/active_directory/firewall.svg;" vertex="1" parent="1">
          <mxGeometry x="267.25" y="170" width="30.5" height="50" as="geometry" />
        </mxCell>
        <mxCell id="9bWMmKPgsMBOj7CA2vgF-5" value="" style="aspect=fixed;perimeter=ellipsePerimeter;html=1;align=center;shadow=0;dashed=0;spacingTop=3;image;image=img/lib/active_directory/firewall.svg;" vertex="1" parent="1">
          <mxGeometry x="267.75" y="370" width="30.5" height="50" as="geometry" />
        </mxCell>
        <mxCell id="9bWMmKPgsMBOj7CA2vgF-6" value="" style="image;html=1;image=img/lib/clip_art/networking/Router_Icon_128x128.png" vertex="1" parent="1">
          <mxGeometry x="243" y="230" width="80" height="50" as="geometry" />
        </mxCell>
        <mxCell id="9bWMmKPgsMBOj7CA2vgF-8" value="" style="edgeStyle=orthogonalEdgeStyle;rounded=0;orthogonalLoop=1;jettySize=auto;html=1;" edge="1" parent="1" source="9bWMmKPgsMBOj7CA2vgF-7" target="9bWMmKPgsMBOj7CA2vgF-6">
          <mxGeometry relative="1" as="geometry" />
        </mxCell>
        <mxCell id="9bWMmKPgsMBOj7CA2vgF-7" value="" style="aspect=fixed;perimeter=ellipsePerimeter;html=1;align=center;shadow=0;dashed=0;spacingTop=3;image;image=img/lib/active_directory/generic_server.svg;" vertex="1" parent="1">
          <mxGeometry x="200" y="290" width="28.000000000000004" height="50" as="geometry" />
        </mxCell>
        <mxCell id="9bWMmKPgsMBOj7CA2vgF-9" value="" style="aspect=fixed;perimeter=ellipsePerimeter;html=1;align=center;shadow=0;dashed=0;spacingTop=3;image;image=img/lib/active_directory/generic_server.svg;" vertex="1" parent="1">
          <mxGeometry x="269" y="300" width="28.000000000000004" height="50" as="geometry" />
        </mxCell>
        <mxCell id="9bWMmKPgsMBOj7CA2vgF-10" value="" style="aspect=fixed;perimeter=ellipsePerimeter;html=1;align=center;shadow=0;dashed=0;spacingTop=3;image;image=img/lib/active_directory/generic_server.svg;" vertex="1" parent="1">
          <mxGeometry x="330" y="290" width="28.000000000000004" height="50" as="geometry" />
        </mxCell>
        <mxCell id="9bWMmKPgsMBOj7CA2vgF-11" value="DMZ" style="ellipse;whiteSpace=wrap;html=1;aspect=fixed;fillColor=none;" vertex="1" parent="1">
          <mxGeometry x="150" y="160" width="270" height="270" as="geometry" />
        </mxCell>
        <mxCell id="9bWMmKPgsMBOj7CA2vgF-15" style="edgeStyle=orthogonalEdgeStyle;rounded=0;orthogonalLoop=1;jettySize=auto;html=1;" edge="1" parent="1" source="9bWMmKPgsMBOj7CA2vgF-12" target="9bWMmKPgsMBOj7CA2vgF-13">
          <mxGeometry relative="1" as="geometry" />
        </mxCell>
        <mxCell id="9bWMmKPgsMBOj7CA2vgF-12" value="ACL" style="image;html=1;image=img/lib/clip_art/networking/Router_Icon_128x128.png;fillColor=none;" vertex="1" parent="1">
          <mxGeometry x="450" y="260" width="80" height="80" as="geometry" />
        </mxCell>
        <mxCell id="9bWMmKPgsMBOj7CA2vgF-21" value="" style="edgeStyle=orthogonalEdgeStyle;rounded=0;orthogonalLoop=1;jettySize=auto;html=1;entryX=0.65;entryY=-0.105;entryDx=0;entryDy=0;entryPerimeter=0;" edge="1" parent="1" source="9bWMmKPgsMBOj7CA2vgF-13" target="9bWMmKPgsMBOj7CA2vgF-16">
          <mxGeometry relative="1" as="geometry">
            <Array as="points">
              <mxPoint x="650" y="295" />
              <mxPoint x="650" y="341" />
              <mxPoint x="582" y="341" />
            </Array>
          </mxGeometry>
        </mxCell>
        <mxCell id="9bWMmKPgsMBOj7CA2vgF-13" value="" style="pointerEvents=1;shadow=0;dashed=0;html=1;strokeColor=none;fillColor=#005F4B;labelPosition=center;verticalLabelPosition=bottom;verticalAlign=top;align=center;outlineConnect=0;shape=mxgraph.veeam2.domain_controller;" vertex="1" parent="1">
          <mxGeometry x="600" y="269" width="40" height="52" as="geometry" />
        </mxCell>
        <mxCell id="9bWMmKPgsMBOj7CA2vgF-16" value="" style="image;html=1;image=img/lib/clip_art/computers/Database_128x128.png;fillColor=none;" vertex="1" parent="1">
          <mxGeometry x="530" y="360" width="80" height="40" as="geometry" />
        </mxCell>
        <mxCell id="9bWMmKPgsMBOj7CA2vgF-17" value="" style="aspect=fixed;perimeter=ellipsePerimeter;html=1;align=center;shadow=0;dashed=0;spacingTop=3;image;image=img/lib/active_directory/database_server.svg;fillColor=none;" vertex="1" parent="1">
          <mxGeometry x="400" y="260" width="41" height="50" as="geometry" />
        </mxCell>
        <mxCell id="9bWMmKPgsMBOj7CA2vgF-18" value="" style="aspect=fixed;perimeter=ellipsePerimeter;html=1;align=center;shadow=0;dashed=0;spacingTop=3;image;image=img/lib/active_directory/database_server.svg;fillColor=none;" vertex="1" parent="1">
          <mxGeometry x="640" y="360" width="41" height="50" as="geometry" />
        </mxCell>
        <mxCell id="9bWMmKPgsMBOj7CA2vgF-19" value="" style="aspect=fixed;perimeter=ellipsePerimeter;html=1;align=center;shadow=0;dashed=0;spacingTop=3;image;image=img/lib/active_directory/web_server.svg;fillColor=none;" vertex="1" parent="1">
          <mxGeometry x="681" y="360" width="40" height="50" as="geometry" />
        </mxCell>
        <mxCell id="9bWMmKPgsMBOj7CA2vgF-20" value="" style="outlineConnect=0;dashed=0;verticalLabelPosition=bottom;verticalAlign=top;align=center;html=1;shape=mxgraph.aws3.classic_load_balancer;fillColor=#F58534;gradientColor=none;direction=south;" vertex="1" parent="1">
          <mxGeometry x="640" y="340" width="55.5" height="20" as="geometry" />
        </mxCell>
      </root>
    </mxGraphModel>
  </diagram>
</mxfile>
